<svg xmlns="http://www.w3.org/2000/svg" viewBox="0 0 1200 1200"><defs><style>.cls-1{fill:#fff;}.cls-2{fill:#f3f3f3;}.cls-3{fill:#e2e2e2;}.cls-4{fill:#de8e68;}.cls-5{fill:#56cad8;}.cls-6{fill:#74d5de;}.cls-7{fill:#fed385;}.cls-8{fill:#333;}.cls-9{fill:#fed892;}.cls-10{fill:#d37c59;}.cls-11{fill:#fd8369;}</style></defs><title>Artboard 1</title><g id="Background_elements" data-name="Background elements"><path class="cls-1" d="M876.41,595.49v496.24a65.66,65.66,0,0,1-65.66,65.66H425a65.66,65.66,0,0,1-65.66-65.66V107A65.67,65.67,0,0,1,425,41.34H810.75A65.67,65.67,0,0,1,876.41,107V595.49"/><rect class="cls-2" x="488.92" y="15.42" width="257.9" height="64.39" rx="15.72" ry="15.72"/><path class="cls-2" d="M812.73,6H423A95.06,95.06,0,0,0,328,101.06v996.56A95.06,95.06,0,0,0,423,1192.68H812.73a95.06,95.06,0,0,0,95.06-95.06V101.06A95.06,95.06,0,0,0,812.73,6Zm63.68,589.49v496.24a65.66,65.66,0,0,1-65.66,65.66H425a65.66,65.66,0,0,1-65.66-65.66V107A65.67,65.67,0,0,1,425,41.34H810.75A65.67,65.67,0,0,1,876.41,107Z"/><rect class="cls-2" x="405.91" y="149.31" width="423.93" height="207.6"/><rect class="cls-2" x="429.63" y="525.61" width="565.57" height="19.53"/><rect class="cls-2" x="429.63" y="576.97" width="565.57" height="19.53"/><rect class="cls-2" x="429.63" y="628.32" width="565.57" height="19.53"/><rect class="cls-2" x="429.63" y="679.68" width="565.57" height="19.53"/><rect class="cls-2" x="429.63" y="731.04" width="565.57" height="19.53"/><rect class="cls-2" x="429.63" y="782.4" width="565.57" height="19.53"/><rect class="cls-2" x="429.63" y="833.76" width="565.57" height="19.53"/><rect class="cls-2" x="429.63" y="885.12" width="565.57" height="19.53"/><rect class="cls-2" x="540.74" y="974.2" width="393.48" height="19.53"/><rect class="cls-2" x="540.74" y="1015.26" width="433.77" height="19.53"/><rect class="cls-2" x="403.44" y="472.93" width="63.86" height="20.28"/><rect class="cls-2" x="483.08" y="472.93" width="63.86" height="20.28"/><rect class="cls-2" x="568.07" y="472.93" width="63.86" height="20.28"/><circle class="cls-2" cx="475.67" cy="1001.8" r="42.45"/><rect class="cls-3" x="429.63" y="394.62" width="525.91" height="41.69"/></g><g id="Vector"><rect class="cls-4" x="327.25" y="1074.32" width="37.1" height="33.1" transform="translate(-734.62 713.68) rotate(-53.17)"/><rect class="cls-4" x="258.55" y="1129.09" width="40.39" height="26.31"/><path class="cls-5" d="M175.54,629.41S93.93,908.11,93.93,913.76s227.78,191.79,232,191.79,21.75-34,21.75-39.91S293.46,1015,293.46,1015Z"/><path class="cls-6" d="M300.57,1129.67,325.9,624.84c-11.9,8.54-73.18,26-150.36,4.57,5.36,44.32,81,503,81,503h43.78Z"/><path class="cls-4" d="M171.2,479.15c-10.21-5.59-118.62-77.3-136.36-77.3s-16.28,10.46-16.28,13.62,2.18,24.06,51.77,36.94c4.37,5.35,76.8,78.75,98.43,87.5C169,516.82,171.2,479.15,171.2,479.15Z"/><path class="cls-7" d="M255.47,259.11c-134.59,0-87.32,359.95-79.93,370.3s144.7,17.42,153.14-8.87C334.27,603.14,363,259.11,255.47,259.11Z"/><polygon class="cls-8" points="61.11 436.3 2.12 397.84 34.37 380.01 91.91 416.22 61.11 436.3"/><path class="cls-4" d="M266.24,409.6c-.25,10,8.31,77.83,20.62,110.43-4.66,24-30.27,158.33-30.27,158.33l18,23.28s65.86-139.86,69.19-161.73-4.66-130.31-6-135.63S266.24,409.6,266.24,409.6Z"/><path class="cls-9" d="M298.52,293.33c40.17-.88,51.47,105.87,44.7,115.35s-78.33,16.71-86.46,7.68S256,294.26,298.52,293.33Z"/><path class="cls-10" d="M267.85,206.54H223.12v70.28c0,9,44.73,8.47,44.73,0Z"/><ellipse class="cls-4" cx="234.96" cy="173.74" rx="72.46" ry="42.15" transform="translate(48.13 398.43) rotate(-86.74)"/><path class="cls-11" d="M147,152c0-7,4-15,4-23,0-7-3-15-3-25,0-17,17-25,26-25,17,0,21,12,48,12,16,0,23-4,32-4,28,0,32,35,32,39,0,17,23,18,23,36,0,17-18,37-32,37s-27-13-27-17c0-9,2-11,2-17,0-21-45.76-26-52.76-26A126.81,126.81,0,0,0,193,172c-2,1-9,3-16,3C172,175,147,169,147,152Z"/><circle class="cls-4" cx="269.5" cy="201.5" r="10.5"/><polygon points="299.77 1152.42 256.84 1152.42 187.86 1179.67 187.86 1190.04 299.77 1190.04 299.77 1152.42"/><polygon points="368.43 1083.69 344.79 1115.25 326.84 1180.97 334.46 1186.68 396.08 1104.4 368.43 1083.69"/><path class="cls-5" d="M722.16,706.1c-6.35,0-9.33,16.25-9.33,29.7a674.67,674.67,0,0,0,11.15,121c1.37,0,2.76-.09,4.17-.09,19.12,0,34.62,5.37,34.62,12s-15.18,11.88-34,12c.29,1.32.57,2.63.87,3.94,18.43.27,33.15,5.53,33.15,12,0,5.77-11.77,10.59-27.44,11.73,33.85,131.18,98.57,234.73,142.22,283h56.67V1143.6C934.22,1060.29,790.76,706.1,722.16,706.1Z"/><path class="cls-6" d="M1156.76,845.33c-37.49,0-41.48,40.22-66.85,40.22-9.79,0-12.5-10.33-12.5-20.11,0-16.67,26.93-78.55,29.19-118.29a44,44,0,0,1-8,.72c-17.74,0-32.13-10.31-32.13-23s14.39-23,32.13-23c.8,0,1.59,0,2.37.07-8.49-29.27-28.35-59.82-72-59.82-71.74,0-91.31,127.18-102.18,178.81-6.73,32-78.33,146.75-78.33,231.68,0,74.86,23,138.71,29,138.71h72.13c0-23,44.73-65.49,55.37-77.12,73.62-80.47,195-117.07,195-211.2C1200,882.29,1194.75,845.33,1156.76,845.33Z"/></g></svg>