<svg xmlns="http://www.w3.org/2000/svg" xmlns:xlink="http://www.w3.org/1999/xlink" width="1154.374" height="227.605" viewBox="0 0 1154.374 227.605">
  <defs>
    <linearGradient id="linear-gradient" x1="0.482" y1="1" x2="0.943" y2="1" gradientUnits="objectBoundingBox">
      <stop offset="0" stop-color="#44a06f"/>
      <stop offset="1" stop-color="#8cc7ab"/>
    </linearGradient>
  </defs>
  <path id="Path_3" data-name="Path 3" d="M809.684,254.317a109.809,109.809,0,0,1-36.543-5.888,82,82,0,0,1-27.947-16.34,71.691,71.691,0,0,1-17.86-24.807,81.151,81.151,0,0,1-.009-62.6,72.711,72.711,0,0,1,17.381-24.6,78.919,78.919,0,0,1,26.318-16.083,97.584,97.584,0,0,1,64.53-.54,75.372,75.372,0,0,1,25.7,15.23,69.79,69.79,0,0,1,17.333,24.584,85.02,85.02,0,0,1,6.359,33.286c0,2.69-.265,5.908-.521,9.02-.118,1.435-.229,2.784-.315,4.081H774.285a33.366,33.366,0,0,0,4.93,10.256,30.554,30.554,0,0,0,7.961,7.617c6.4,4.23,14.534,6.375,24.18,6.375a51.434,51.434,0,0,0,19.093-3.2A53.319,53.319,0,0,0,846.2,200.8L874.07,229.79a67.435,67.435,0,0,1-12.138,10.652,71.648,71.648,0,0,1-14.725,7.673,89.321,89.321,0,0,1-17.39,4.642A123.7,123.7,0,0,1,809.684,254.317Zm-5.3-118.459c-16.241,0-27.806,9.691-30.938,25.923h61.877C832.521,145.792,820.667,135.858,804.388,135.858ZM384.347,254.317a99.052,99.052,0,0,1-34.14-5.81A80.869,80.869,0,0,1,323.2,232.3a72.989,72.989,0,0,1-17.756-24.78,78.262,78.262,0,0,1-6.389-31.522,77.293,77.293,0,0,1,6.389-31.317,72.428,72.428,0,0,1,17.756-24.6,80.948,80.948,0,0,1,27.006-16.083,104.717,104.717,0,0,1,68.514,0,80.253,80.253,0,0,1,26.98,16.083,71.976,71.976,0,0,1,17.626,24.6,78,78,0,0,1,6.311,31.317,78.976,78.976,0,0,1-6.311,31.522A72.536,72.536,0,0,1,445.7,232.3a80.174,80.174,0,0,1-26.98,16.21A99.971,99.971,0,0,1,384.347,254.317Zm0-114a32.849,32.849,0,0,0-12.491,2.361,28.653,28.653,0,0,0-10.087,6.907c-6.018,6.384-9.2,15.516-9.2,26.409,0,21.673,12.77,36.235,31.776,36.235a32.7,32.7,0,0,0,12.608-2.409,28.4,28.4,0,0,0,10.073-7.034c5.949-6.46,9.093-15.725,9.093-26.793C416.121,154.322,403.649,140.318,384.347,140.318ZM675.058,251.81h0l-52.956,0V174.043c0-10.5-2.239-18.452-6.654-23.622-4.147-4.855-10.254-7.317-18.151-7.317-19.131,0-30.1,13-30.1,35.677v73.026h-52.96V100.738h50.45v16.446A58.891,58.891,0,0,1,586.04,103a72.78,72.78,0,0,1,26.584-4.774,74.429,74.429,0,0,1,24.689,3.911,53.259,53.259,0,0,1,19.8,12.116,55.281,55.281,0,0,1,13.165,20.9c3.17,8.719,4.777,18.9,4.777,30.251V251.81Zm-423.107,0,0,0H201.223l-.134-24.751,50.541-87.54.321,112.29Zm771.516,0H968.838l-62.157-151.07h54.352L997.268,193l38.185-92.259H1085.9l-62.435,151.07Zm149.121,0h0v0l-52.955,0V100.738h52.958Zm-1096.513,0H25.066V140.062l51.008,88.349v23.4Zm73.178-19.231,0,0h0l-22.119,0L25.587,56.7H70.5l68.566,112.606L205.961,56.7h44.833ZM1146.108,84.016a39.69,39.69,0,0,1-13.283-2.165,30.388,30.388,0,0,1-10.2-5.954,27.1,27.1,0,0,1,0-40.068,30.389,30.389,0,0,1,10.2-5.953,39.69,39.69,0,0,1,13.283-2.165,41.842,41.842,0,0,1,13.283,2.034,30.285,30.285,0,0,1,10.2,5.666,25.006,25.006,0,0,1,6.541,8.645,26.252,26.252,0,0,1,2.308,10.97,29.125,29.125,0,0,1-2.308,11.585,26.6,26.6,0,0,1-6.541,9.181,29.944,29.944,0,0,1-10.2,6.045A39.361,39.361,0,0,1,1146.108,84.016Z" transform="translate(-24.566 -27.212)" stroke="rgba(0,0,0,0)" stroke-width="1" fill="url(#linear-gradient)"/>
</svg>
